<?xml version="1.0" encoding="utf-8"?>
<!-- Generator: Adobe Illustrator 24.0.3, SVG Export Plug-In . SVG Version: 6.00 Build 0)  -->
<svg version="1.1" id="Layer_1" xmlns="http://www.w3.org/2000/svg" xmlns:xlink="http://www.w3.org/1999/xlink" x="0px" y="0px"
	 viewBox="0 0 478.13 481.26" style="enable-background:new 0 0 478.13 481.26;" xml:space="preserve">
<style type="text/css">
	.st0{fill:#E08383;}
</style>
<g>
	<path class="st0" d="M398.34,35.5H57.01c-19.11,0-34.13,15.02-34.13,34.13v341.34c0,19.11,15.02,34.13,34.13,34.13h341.34
		c19.11,0,34.13-15.02,34.13-34.14V69.63C432.48,50.52,417.46,35.5,398.34,35.5L398.34,35.5z M227.68,431.45V294.92h-54.61v-54.61
		h54.61v-47.79c0-38.91,30.03-71.68,68.27-75.09h61.44v54.61h-54.61c-11.61,0-20.48,8.87-20.48,20.48v47.79h68.27v54.61H282.3
		v136.53H227.68z M418.82,410.97c0,11.6-8.87,20.48-20.48,20.48h-102.4V308.57h68.27v-81.92h-68.27v-34.13
		c0-4.09,2.73-6.82,6.83-6.82h68.27v-81.92h-75.78c-45.74,4.1-81.24,43.01-81.24,88.75v34.13h-54.61v81.92h54.61v122.88H57.01
		c-11.61,0-20.48-8.88-20.48-20.48V69.65c0-11.61,8.88-20.48,20.48-20.48h341.34c11.6,0,20.48,8.88,20.48,20.48L418.82,410.97
		L418.82,410.97z"/>
</g>
</svg>
