<?xml version="1.0" encoding="utf-8"?>
<!-- Generator: Adobe Illustrator 24.0.3, SVG Export Plug-In . SVG Version: 6.00 Build 0)  -->
<svg version="1.1" id="Шар_1" xmlns="http://www.w3.org/2000/svg" xmlns:xlink="http://www.w3.org/1999/xlink" x="0px" y="0px"
	 viewBox="0 0 151.88 196.68" style="enable-background:new 0 0 151.88 196.68;" xml:space="preserve">
<style type="text/css">
	.st0{fill:none;stroke:#000000;stroke-width:0.7855;stroke-miterlimit:10;}
	.st1{fill:#ED4339;}
	.st2{fill:#FFFFFF;}
</style>
<g>
	<path class="st0" d="M33.21,45.27c3.58-1.18,8.07-2.73,13.2-4.72c4.57-1.77,10.53-4.09,17.99-7.76c3.5-1.72,7.82-3.98,12.68-6.85"
		/>
	<path class="st0" d="M121.2,45.2c-3.92-1.22-8.46-2.75-13.46-4.65c-9.58-3.65-16.42-6.99-17.99-7.76
		c-3.73-1.84-8.02-4.1-12.68-6.85"/>
	<circle cx="77.07" cy="25.94" r="3.23"/>
	<rect x="32.08" y="44.46" class="st1" width="89.99" height="134.29"/>
	<path class="st2" d="M75.22,76.59c-3.16,0-5.93,1.03-8.35,3.09s-3.63,4.59-3.63,7.62c0,3.02,1.36,5.81,4.08,8.33
		c2.72,2.55,6,4.88,9.8,6.99c3.8,2.11,7.65,4.38,11.53,6.8c3.87,2.42,7.17,5.51,9.89,9.24c2.72,3.77,4.08,8.06,4.08,12.89
		c0,7.13-2.7,13.22-8.07,18.24c-5.39,5.02-11.89,7.52-19.51,7.52c-4.83,0-9.33-1.05-13.51-3.17c-4.17-2.11-7.22-4.92-9.15-8.42
		v-8.72c4.59,10.17,11.98,15.24,22.13,15.24c6.29,0,11.58-1.94,15.87-5.81c4.31-3.87,6.45-8.2,6.45-12.97s-1.36-8.79-4.08-12.05
		c-2.72-3.28-6.02-6.05-9.89-8.35s-7.71-4.57-11.53-6.8c-3.8-2.23-7.08-4.95-9.8-8.16c-2.72-3.21-4.08-6.96-4.08-11.25
		c0-4.29,1.73-7.93,5.18-10.9c3.44-2.95,7.88-4.43,13.32-4.43c5.44,0,10.1,2.11,13.97,6.35v7.43
		C86.03,79.49,81.13,76.59,75.22,76.59z"/>
</g>
</svg>
