<svg id="Layer_1" height="512" viewBox="0 0 512 512" width="512" xmlns="http://www.w3.org/2000/svg" data-name="Layer 1"><path d="m450.026 192.65h-31l-87.436-126.828a7 7 0 1 0 -11.526 7.945l81.955 118.883h-286.083l81.954-118.883a7 7 0 1 0 -11.526-7.945l-87.432 126.828h-36.958a29.492 29.492 0 1 0 0 58.983h5.226l17.591 173.3a26.924 26.924 0 0 0 26.862 24.273h288.691a26.922 26.922 0 0 0 26.861-24.273l17.592-173.3h5.229a29.492 29.492 0 1 0 0-58.983zm-36.749 230.868a12.962 12.962 0 0 1 -12.933 11.687h-288.688a12.962 12.962 0 0 1 -12.933-11.687l-17.448-171.885h349.45zm36.749-185.885h-388.052a15.492 15.492 0 1 1 0-30.983h388.052a15.492 15.492 0 1 1 0 30.983z"/><path d="m256 407.526a7 7 0 0 0 7-7v-115.296a7 7 0 0 0 -14 0v115.3a7 7 0 0 0 7 6.996z"/><path d="m335.57 407.526a7 7 0 0 0 7-7v-115.296a7 7 0 0 0 -14 0v115.3a7 7 0 0 0 7 6.996z"/><path d="m176.43 407.526a7 7 0 0 0 7-7v-115.296a7 7 0 0 0 -14 0v115.3a7 7 0 0 0 7 6.996z"/></svg>