<?xml version="1.0" encoding="utf-8"?>
<!-- Generator: Adobe Illustrator 24.0.3, SVG Export Plug-In . SVG Version: 6.00 Build 0)  -->
<svg version="1.1" id="Layer_1" xmlns="http://www.w3.org/2000/svg" xmlns:xlink="http://www.w3.org/1999/xlink" x="0px" y="0px"
	 viewBox="0 0 512 385.3" style="enable-background:new 0 0 512 385.3;" xml:space="preserve">
<path d="M450,129.9h-31L331.6,3.1c-2.2-3.2-6.5-4.1-9.7-1.9s-4.1,6.5-1.9,9.7l0.1,0.1l82,118.9H115.9l82-118.9
	c2.2-3.2,1.5-7.5-1.7-9.8c-3.2-2.2-7.5-1.5-9.8,1.7L186.3,3L98.9,129.9H62c-16.3-0.1-29.6,13-29.7,29.3s13,29.6,29.3,29.7
	c0.1,0,0.2,0,0.3,0h5.2l17.6,173.3c1.4,13.8,13,24.3,26.9,24.3h288.7c13.9,0,25.5-10.5,26.9-24.3l17.6-173.3h5.2
	c16.3,0.1,29.6-13,29.7-29.3s-13-29.6-29.3-29.7C450.3,129.9,450.1,129.9,450,129.9L450,129.9z M413.3,360.8
	c-0.7,6.6-6.3,11.7-12.9,11.7H111.7c-6.7,0-12.3-5-12.9-11.7L81.3,188.9h349.5L413.3,360.8z M450,174.9H62
	c-8.6,0.1-15.5-6.8-15.6-15.4s6.8-15.5,15.4-15.6c0.1,0,0.2,0,0.2,0h388c8.6-0.1,15.5,6.8,15.6,15.4s-6.8,15.5-15.4,15.6
	C450.2,174.9,450.1,174.9,450,174.9z"/>
<path d="M256,385.3c3.9,0,7-3.1,7-7V263c0-3.9-3.1-7-7-7s-7,3.1-7,7v115.3C249,382.2,252.1,385.3,256,385.3L256,385.3z"/>
<path d="M335.6,385.3c3.9,0,7-3.1,7-7V263c0-3.9-3.1-7-7-7s-7,3.1-7,7v115.3C328.6,382.2,331.7,385.3,335.6,385.3L335.6,385.3z"/>
<path d="M176.4,385.3c3.9,0,7-3.1,7-7V263c0-3.9-3.1-7-7-7s-7,3.1-7,7v115.3C169.4,382.2,172.6,385.3,176.4,385.3L176.4,385.3z"/>
</svg>
